<svg width="20" height="20" viewBox="0 0 20 20" fill="none" xmlns="http://www.w3.org/2000/svg">
<path fill-rule="evenodd" clip-rule="evenodd" d="M2 3C2 2.44772 2.44772 2 3 2C3.55228 2 4 2.44772 4 3C4 3.55228 3.55228 4 3 4C2.44772 4 2 3.55228 2 3ZM5.82929 2C5.41746 0.834808 4.30622 0 3 0C1.34315 0 0 1.34315 0 3C0 4.65685 1.34315 6 3 6C4.30622 6 5.41746 5.16519 5.82929 4L19 4C19.5523 4 20 3.55229 20 3C20 2.44772 19.5523 2 19 2L5.82929 2ZM1 9C0.447715 9 0 9.44771 0 10C0 10.5523 0.447715 11 1 11H13.1707C13.5825 12.1652 14.6938 13 16 13C17.6569 13 19 11.6569 19 10C19 8.34315 17.6569 7 16 7C14.6938 7 13.5825 7.83481 13.1707 9H1ZM16 11C15.4477 11 15 10.5523 15 10C15 9.44772 15.4477 9 16 9C16.5523 9 17 9.44772 17 10C17 10.5523 16.5523 11 16 11ZM0 17C0 16.4477 0.447715 16 1 16H5.17071C5.58254 14.8348 6.69378 14 8 14C9.30622 14 10.4175 14.8348 10.8293 16H19C19.5523 16 20 16.4477 20 17C20 17.5523 19.5523 18 19 18H10.8293C10.4175 19.1652 9.30622 20 8 20C6.69378 20 5.58254 19.1652 5.17071 18H1C0.447715 18 0 17.5523 0 17ZM9 17C9 16.4477 8.55228 16 8 16C7.44772 16 7 16.4477 7 17C7 17.5523 7.44772 18 8 18C8.55228 18 9 17.5523 9 17Z" fill="black"/>
</svg>
